<!-- https://www.svgrepo.com/svg/211756/game-controller-joystick -->
<!DOCTYPE svg PUBLIC "-//W3C//DTD SVG 1.1//EN" "http://www.w3.org/Graphics/SVG/1.1/DTD/svg11.dtd">
<svg part="svg" height="800px" width="800px" version="1.1"
	xmlns="http://www.w3.org/2000/svg"
	xmlns:xlink="http://www.w3.org/1999/xlink" viewBox="0 0 512.00 512.00" transform="matrix(1, 0, 0, 1, 0, 0)rotate(0)">
	<g part="base">
		<path style="fill:#E4EAF6;" d="M256,128C185.379,128,0,163.31,0,313.379C0,364.065,34.604,384,70.621,384 c61.79,0,88.276-44.138,185.379-44.138S379.59,384,441.379,384C477.396,384,512,364.065,512,313.379C512,163.31,326.621,128,256,128 z"/>
		<path style="fill:#D7DEED;" d="M256,189.793c16.723,0,32.493,1.315,46.541,3.624c4.938,0.811,9.906-0.548,13.801-3.69 c22.745-18.344,51.316-32.007,73.479-34.639C340.02,134.799,286.974,128,256,128s-84.02,6.799-133.821,27.086 c22.163,2.633,50.734,16.296,73.479,34.639c3.895,3.142,8.863,4.501,13.801,3.69C223.507,191.108,239.277,189.793,256,189.793z"/>
	</g>
	<g part="left-area">
		<g part="left-base">
			<path style="fill:#D7DEED;" d="M180.79,320.725c-37.131,33.418-92.842,37.458-124.435,9.024s-27.104-78.574,10.027-111.991 s92.842-37.458,124.435-9.024S217.921,287.307,180.79,320.725z"/>
			<path style="fill:#E4EAF6;" d="M171.378,312.497c-29.524,26.413-74.855,28.46-101.249,4.57s-23.858-64.668,5.666-91.081 s74.855-28.46,101.249-4.57S200.9,286.083,171.378,312.497z"/>
		</g>
		<circle style="fill:#FFCD46;" cx="123.586" cy="269.241" r="52.966"/>
		<path style="fill:#FFDC50;" d="M176.552,269.241c0-4.58-0.643-9.002-1.736-13.241h-29.161c-4.875,0-8.828-3.953-8.828-8.828v-29.161 c-4.239-1.094-8.661-1.736-13.241-1.736c-4.58,0-9.002,0.643-13.241,1.736v29.161c0,4.875-3.953,8.828-8.828,8.828H72.356 c-1.092,4.239-1.736,8.661-1.736,13.241c0,4.58,0.643,9.002,1.736,13.241h29.161c4.875,0,8.828,3.953,8.828,8.828v29.161 c4.239,1.094,8.661,1.736,13.241,1.736c4.58,0,9.002-0.643,13.241-1.736V291.31c0-4.875,3.953-8.828,8.828-8.828h29.161 C175.908,278.243,176.552,273.822,176.552,269.241z"/>
		<circle style="fill:#FFCD46;" cx="123.586" cy="269.241" r="8.828"/>
	</g>
	<g part="center-area">
		<circle part="reset" style="fill:#C7CFE2;" cx="256" cy="250" r="20"/>
		<path part="select" style="fill:#D7DEED;" d="M220.69,322.207c-2.259,0-4.518-0.862-6.241-2.586c-3.448-3.448-3.448-9.035,0-12.483l17.655-17.655 c3.448-3.448,9.035-3.448,12.483,0c3.448,3.448,3.448,9.035,0,12.483l-17.655,17.655 C225.207,321.345,222.948,322.207,220.69,322.207z"/>
		<path part="start" style="fill:#D7DEED;" d="M264.828,322.207c-2.259,0-4.517-0.862-6.241-2.586c-3.448-3.448-3.448-9.035,0-12.483 l17.655-17.655c3.448-3.448,9.035-3.448,12.483,0c3.448,3.448,3.448,9.035,0,12.483L271.07,319.62 C269.345,321.345,267.086,322.207,264.828,322.207z"/>
	</g>
	<g part="right-area">
		<g part="right-base">
			<path style="fill:#D7DEED;" d="M331.21,320.725c37.131,33.418,92.842,37.458,124.435,9.024 c31.593-28.434,27.104-78.574-10.027-111.991s-92.842-37.458-124.435-9.024C289.59,237.167,294.079,287.307,331.21,320.725z"/>
			<path style="fill:#E4EAF6;" d="M340.622,312.497c29.524,26.413,74.855,28.46,101.249,4.57c26.395-23.89,23.858-64.668-5.666-91.081 c-29.524-26.413-74.855-28.46-101.249-4.57C308.562,245.305,311.1,286.083,340.622,312.497z"/>
		</g>
		<circle part="b" style="fill:#FFCD46;" cx="362.262" cy="311.823" r="20.359"/>
		<circle part="a" style="fill:#FF6464;" cx="404.061" cy="286.521" r="20.359"/>
		<circle part="c" style="fill:#82B9FF;" cx="445.859" cy="261.219" r="20.359"/>
		<circle part="turbo-b" style="fill:#FFCD46;" cx="333.385" cy="270.764" r="16.287"/>
		<circle part="turbo-a" style="fill:#FF6464;" cx="371.046" cy="248.132" r="16.287"/>
		<circle part="turbo-c" style="fill:#82B9FF;" cx="408.706" cy="225.501" r="16.287"/>
	</g>
</svg>
