<!-- https://www.svgrepo.com/svg/211776/game-controller-gamepad -->
<!DOCTYPE svg PUBLIC "-//W3C//DTD SVG 1.1//EN" "http://www.w3.org/Graphics/SVG/1.1/DTD/svg11.dtd">
<svg part="svg" version="1.1" x="0px" y="0px" viewBox="0 0 512.001 512.001" data-left-area-viewBox="0 97.104 194.206 194.206" data-right-area-viewBox="317.794 97.104 194.206 194.206" data-center-area-viewBox="158.897 88.277 194.206 194.206"
	xmlns="http://www.w3.org/2000/svg"
	xmlns:xlink="http://www.w3.org/1999/xlink" xml:space="preserve">
	<g part="top-area">
		<path style="fill:#707487;" d="M135.724,79.449l-1.737-7.147c-0.747-3.075-3.308-5.675-6.809-6.603
	c-9.612-2.548-19.689-3.905-30.074-3.905S76.641,63.151,67.029,65.7c-3.501,0.928-6.062,3.528-6.809,6.603l-1.737,7.146H135.724z"/>
		<path style="fill:#707487;" d="M453.517,79.449l-1.737-7.147c-0.747-3.075-3.308-5.675-6.809-6.603
	c-9.612-2.548-19.689-3.905-30.074-3.905s-20.462,1.357-30.074,3.906c-3.501,0.928-6.062,3.528-6.809,6.603l-1.737,7.146H453.517z" />
	</g>
	<g part="base">
		<path style="fill:#D7DEED;" d="M35.31,141.242h123.586l-17.527-60.093c-0.899-3.082-3.628-5.591-7.211-6.406
	c-11.825-2.688-24.244-4.122-37.055-4.122s-25.23,1.434-37.055,4.122c-3.583,0.814-6.312,3.324-7.211,6.406L35.31,141.242z"/>
		<path style="fill:#D7DEED;" d="M353.103,141.242H476.69l-17.527-60.093c-0.899-3.082-3.628-5.591-7.211-6.406
		c-11.825-2.688-24.244-4.122-37.055-4.122c-12.811,0-25.23,1.434-37.055,4.122c-3.583,0.814-6.312,3.324-7.211,6.406
		L353.103,141.242z"/>
		<path style="fill:#D7DEED;" d="M370.759,114.759H141.241L0,194.207v201.445c0,30.13,24.425,54.555,54.554,54.555h0.004
		c20.664,0,39.554-11.674,48.796-30.157l68.318-136.636c2.99-5.982,9.103-9.76,15.791-9.76h137.074
		c6.687,0,12.801,3.778,15.791,9.76l68.318,136.636c9.241,18.483,28.131,30.157,48.796,30.157h0.004
		c30.13,0,54.554-24.425,54.554-54.555V194.207L370.759,114.759z"/>
		<circle style="fill:#E4EAF6;" cx="97.103" cy="194.207" r="97.103"/>
		<circle style="fill:#E4EAF6;" cx="414.897" cy="194.207" r="97.103"/>
	</g>
	<g part="left-area">
		<path part="left-base" style="fill:#D7DEED;" d="M158.897,167.725h-35.31v-35.31c0-4.875-3.953-8.828-8.828-8.828h-35.31
		c-4.875,0-8.828,3.953-8.828,8.828v35.31H35.31c-4.875,0-8.828,3.953-8.828,8.828v35.31c0,4.875,3.953,8.828,8.828,8.828h35.31
		v35.31c0,4.875,3.953,8.828,8.828,8.828h35.31c4.875,0,8.828-3.953,8.828-8.828v-35.31h35.31c4.875,0,8.828-3.953,8.828-8.828
		v-35.31C167.724,171.677,163.772,167.725,158.897,167.725z"/>
		<path part="left" style="fill:#707487;" d="M76.641,207.449H59.094c-3.384,0-6.129-2.744-6.129-6.129v-14.226c0-3.384,2.744-6.129,6.129-6.129
		h17.548c1.782,0,3.476,0.776,4.64,2.125l7.103,8.233c1.429,1.656,1.429,4.11,0,5.767l-7.103,8.233
		C80.118,206.673,78.423,207.449,76.641,207.449z"/>
		<path part="right" style="fill:#707487;" d="M120.162,180.966h17.548c3.384,0,6.129,2.744,6.129,6.129v14.226c0,3.384-2.744,6.129-6.129,6.129
		h-17.548c-1.782,0-3.476-0.776-4.64-2.125l-7.103-8.233c-1.429-1.656-1.429-4.11,0-5.767l7.103-8.233
		C116.685,181.742,118.379,180.966,120.162,180.966z"/>
		<path part="down" style="fill:#707487;" d="M111.642,215.967v17.547c0,3.384-2.744,6.129-6.129,6.129H91.288c-3.384,0-6.129-2.744-6.129-6.129
		v-17.547c0-1.782,0.776-3.476,2.125-4.64l8.233-7.103c1.656-1.429,4.11-1.429,5.767,0l8.233,7.103
		C110.867,212.492,111.642,214.185,111.642,215.967z"/>
		<path part="up" style="fill:#707487;" d="M85.16,172.447V154.9c0-3.384,2.744-6.129,6.129-6.129h14.226c3.384,0,6.129,2.744,6.129,6.129
		v17.547c0,1.782-0.776,3.476-2.125,4.64l-8.233,7.103c-1.656,1.429-4.11,1.429-5.767,0l-8.233-7.103
		C85.937,175.923,85.16,174.23,85.16,172.447z"/>
	</g>
	<g part="center-area">
		<circle part="reset" style="fill:#C7CFE2;" cx="256" cy="185.38" r="26.483"/>
		<path part="select" style="fill:#707487;" d="M229.517,247.173h-17.655c-4.875,0-8.828-3.953-8.828-8.828l0,0c0-4.875,3.953-8.828,8.828-8.828
		h17.655c4.875,0,8.828,3.953,8.828,8.828l0,0C238.345,243.22,234.392,247.173,229.517,247.173z"/>
		<path part="start" style="fill:#707487;" d="M307.054,241.03l-27.915,6.978c-2.786,0.696-5.484-1.41-5.484-4.282v-10.763
		c0-2.871,2.699-4.979,5.484-4.282l27.915,6.978C309.849,236.359,309.849,240.332,307.054,241.03z"/>
	</g>
	<g part="right-area">
		<path part="right-base" style="fill:#D7DEED;" d="M476.69,167.725h-35.31v-35.31c0-4.875-3.953-8.828-8.828-8.828h-35.31
		c-4.875,0-8.828,3.953-8.828,8.828v35.31h-35.31c-4.875,0-8.828,3.953-8.828,8.828v35.31c0,4.875,3.953,8.828,8.828,8.828h35.31
		v35.31c0,4.875,3.953,8.828,8.828,8.828h35.31c4.875,0,8.828-3.953,8.828-8.828v-35.31h35.31c4.875,0,8.828-3.953,8.828-8.828
		v-35.31C485.517,171.677,481.565,167.725,476.69,167.725z"/>
		<circle part="b" style="fill:#FF82AF;" cx="370.759" cy="194.207" r="17.655"/>
		<circle part="a" style="fill:#82B9FF;" cx="414.897" cy="238.345" r="17.655"/>
		<circle part="turbo-b" style="fill:#00DCC8;" cx="414.897" cy="150.07" r="17.655"/>
		<circle part="turbo-a" style="fill:#FF6464;" cx="459.034" cy="194.207" r="17.655"/>
	</g>
</svg>
